<?xml version="1.0" encoding="UTF-8"?>
<svg id="Calque_1" data-name="Calque 1" xmlns="http://www.w3.org/2000/svg" viewBox="0 0 472.41 182.2">
  <defs>
    <style>
      .cls-1 {
        fill: #fefefe;
      }

      .cls-2 {
        fill: #51529f;
      }

      .cls-3 {
        fill: #555454;
        stroke: #010101;
        stroke-miterlimit: 10;
      }

      .cls-4 {
        fill: #f8c5d0;
      }

      .cls-5 {
        fill: #f18ba1;
      }
    </style>
  </defs>
  <g>
    <g>
      <path class="cls-2" d="M123.96,175.79c-3.73,1.45-7.43,2.54-11.18,3.77-23.16,6.08-47.81,1.34-68.31-10.89C22.14,153.93,6.99,132.94,1.07,106.2c-3.52-24.08,1.66-48.34,15.61-68.16,5.33-7.57,11.87-14.14,19.21-19.65,4.06-3.05,8.3-5.7,12.72-8.16,8.98-5.01,18.84-8.15,28.99-9.49,26.18-3.45,53.33,5.33,73.27,22.97,8.63,7.9,15.91,17.27,20.77,28.02l3.94,8.71c7.96,20.77,6.94,43.89-.8,64.56-10.07,23.07-27.53,41.71-50.82,50.78ZM134.65,158.7c4.65-3.22,8.94-6.72,12.93-10.66l4.66-4.6c9.55-9.43,15.62-24.98,17.78-38.35,1.09-6.71,1.55-13.42,1.41-20.25-.18-8.79-2.16-17.34-5.53-25.39-4.15-9.92-10.02-18.32-16.84-26.49-4.74-5.44-10.38-9.92-16.55-13.57-8.83-5.23-18.55-8.71-28.6-10.4-4.01-.67-7.84-.86-11.89-.83-6.33.04-12.47.78-18.67,2.02-3.74.75-7.29,1.57-10.9,2.88-7.06,2.56-13.68,6.1-19.75,10.64-7.43,5.56-14.06,12.31-19.3,20.08-8.87,13.15-13.64,28.69-13.84,44.66-.08,6.4.46,12.75,1.81,19.01,1.5,6.97,4.05,13.64,7.34,19.91,5.21,9.93,12.23,18.68,20.69,25.84,2.36,2,4.71,3.85,7.35,5.47,6.41,3.94,13.24,7.06,20.39,9.33,14.85,4.71,30.67,5.13,45.71,1.14,7.76-2.3,15.05-5.78,21.8-10.45Z"/>
      <path class="cls-1" d="M134.65,158.7c-6.74,4.67-14.03,8.15-21.8,10.45-15.04,3.99-30.86,3.57-45.71-1.14-7.15-2.27-13.99-5.39-20.39-9.33-2.63-1.62-4.99-3.47-7.35-5.47-8.46-7.16-15.48-15.91-20.69-25.84-3.29-6.28-5.84-12.95-7.34-19.91-1.35-6.25-1.89-12.61-1.81-19.01.2-15.98,4.97-31.52,13.84-44.66,5.24-7.77,11.87-14.52,19.3-20.08,6.08-4.54,12.69-8.08,19.75-10.64,3.6-1.31,7.16-2.13,10.9-2.88,6.2-1.24,12.34-1.98,18.67-2.02,4.05-.02,7.88.16,11.89.83,10.06,1.69,19.77,5.17,28.6,10.4,6.17,3.65,11.81,8.13,16.55,13.57,6.82,8.17,12.69,16.57,16.84,26.49,3.37,8.05,5.35,16.6,5.53,25.39.14,6.83-.32,13.54-1.41,20.25-2.16,13.37-8.23,28.92-17.78,38.35l-4.66,4.6c-3.99,3.93-8.28,7.44-12.93,10.66ZM59.37,91.92c-.24,4.49.93,8.84,2.71,12.88,2.54,5.79,7.21,11.45,11.41,16.26l-5.98,2.41c-1.76.71-3.41,1.44-5.24,1.91-1.75.36-3.52.6-5.22-.03l-6.3-2.32-.1-41.88c0-1.71-.02-3.22.13-4.85l4.67-4.24c2.89-2.63,5.86-5,8.98-7.35,5.91-4.44,11.58-9.05,17.05-14.03,3.05-2.78,5.83-5.69,10.05-6.44,1.03.62,2.07,1,2.98,1.78,6.06,5.25,12.19,10.28,18.45,15.29,1.69,1.35,3.18,2.75,5.02,3.85,4.26,2.55,7.69,4.54,11.17,8.32,1.35,4.32,3.09,8.93,2.74,13.56l-.46,6.15-.36,6.69-.67,16.15c-.06,1.47.26,2.84.95,4.07,2.89-.89,5.27-2.46,7.34-4.52.52-.52.84-.99,1.2-1.62.96-1.67,1.56-3.39,1.61-5.36.06-2.21,0-4.31-.06-6.55l-.38-12.95-.25-7.87c2.57-.01,5,.29,7.55-.05.6-.48,1.25-1.16,1.66-1.84.85-1.44.8-3.54.02-4.89-.5-.87-1.26-1.53-2.04-2.14-1.65-1.3-3.36-2.39-4.89-3.84-.86-.81-1.45-1.89-1.97-2.94-.61-1.21-.81-2.52-.9-3.88-.16-2.54-.08-5.03-.05-7.59.03-2.73-.28-4.88-2.2-6.88-.91-.02-1.79-.07-2.72.04l-7.72.92-1.91,4.8c-.78.09-1.71.34-2.36-.18l-7.53-6-13.94-11.2-6.19-4.97c-1.48-1.19-3.09-2.12-4.92-2.63-.98-.27-2,.02-2.88.47-1.24.63-2.34,1.35-3.47,2.25l-22.92,18.02-17.11,13.36c-4.37,3.42-8.68,6.77-12.82,10.45-1.71,1.52-2.29,3.85-2.54,6.03-.06.57.03.97.5,1.22.76.97,1.76,1.5,2.95,1.73,1.68.32,3.36.48,5.05.69l.82,51.16c.02,1.43.35,2.99,1.04,4.19,8.36,8.8,18.6,15.43,30.03,19.24,4.43,1.48,8.95,2.67,13.6,3.14,15.24,1.55,34.42-3.88,46.08-14.23l6.57-5.83c2.37-2.11,4.52-4.29,6.62-6.67,3.29-3.73,6.83-8.79,7.34-13.92.1-1-.11-2.11-.48-3-.35-.83-1.06-1.31-1.62-1.98-3.33.17-4.87.11-7.54,2.3-1.66,1.36-3.13,2.79-4.72,4.25l-7.72,7.07c-2.82,2.58-5.85,4.75-9.12,6.7-4.88,2.92-10.18,4.78-15.83,5.21-1.91.15-3.64.08-5.53.03l-10.22-.29c-.04-.66-.03-1.2,0-1.94,8.69,2.4,19.35,2.31,27.46-1.94.17-2.02.19-3.9,0-5.85-.91-.63-1.76-1.22-2.71-1.74-1.3-.53-2.63-.77-4.02-.99l-7.42-1.14,4.59-3.74c3.78-3.07,6.91-6.75,9.76-10.77,2.8-4.18,5.15-8.62,6.37-13.55.46-1.87.38-3.81.29-5.73-.14-3.03-.99-5.99-2.74-8.43-.97-1.35-2.26-2.37-3.51-3.42-3.9-3.27-9.38-4.47-14.31-3.8-1.21.26-2.17.81-3.16,1.56-2.41,1.85-4.55,3.96-6.83,6.06-3.01-3.25-6.39-5.83-10.3-7.73-3.25-.79-6.52-.46-9.69.65-1.52.7-3.19,1.13-4.51,2.23-3.39,2.81-6.44,8.15-6.67,12.66Z"/>
      <path class="cls-5" d="M59.37,91.92c.24-4.51,3.28-9.85,6.67-12.66,1.33-1.1,2.99-1.53,4.51-2.23,3.17-1.1,6.44-1.44,9.69-.65,3.91,1.9,7.3,4.48,10.3,7.73,2.28-2.09,4.42-4.21,6.83-6.06.98-.76,1.95-1.3,3.16-1.56,4.93-.66,10.41.53,14.31,3.8,1.25,1.05,2.54,2.07,3.51,3.42,1.75,2.44,2.61,5.4,2.74,8.43.09,1.92.17,3.86-.29,5.73-1.22,4.94-3.57,9.38-6.37,13.55-2.85,4.02-5.98,7.7-9.76,10.77l-4.59,3.74,7.42,1.14c1.4.22,2.72.46,4.02.99.95.52,1.8,1.11,2.71,1.74.2,1.96.18,3.83,0,5.85-8.11,4.25-18.77,4.34-27.46,1.94-.03.74-.04,1.28,0,1.94l10.22.29c1.89.05,3.62.12,5.53-.03,5.64-.44,10.94-2.29,15.83-5.21,3.27-1.96,6.3-4.12,9.12-6.7l7.72-7.07c1.59-1.46,3.06-2.89,4.72-4.25,2.67-2.19,4.22-2.13,7.54-2.3.55.67,1.27,1.16,1.62,1.98.37.89.58,2,.48,3-.51,5.13-4.04,10.19-7.34,13.92-2.1,2.38-4.25,4.57-6.62,6.67l-6.57,5.83c-11.67,10.35-30.84,15.77-46.08,14.23-4.65-.47-9.17-1.67-13.6-3.14-11.43-3.81-21.67-10.44-30.03-19.24-.69-1.2-1.02-2.76-1.04-4.19l-.82-51.16c-1.7-.21-3.38-.37-5.05-.69-1.19-.23-2.19-.76-2.95-1.73-.47-.25-.56-.65-.5-1.22.24-2.18.83-4.51,2.54-6.03,4.14-3.68,8.45-7.03,12.82-10.45l17.11-13.36,22.92-18.02c1.13-.89,2.23-1.61,3.47-2.25.89-.45,1.91-.74,2.88-.47,1.83.51,3.43,1.44,4.92,2.63l6.19,4.97,13.94,11.2,7.53,6c.66.52,1.59.27,2.36.18l1.91-4.8,7.72-.92c.93-.11,1.8-.05,2.72-.04,1.92,2,2.23,4.15,2.2,6.88-.02,2.56-.11,5.05.05,7.59.09,1.36.29,2.66.9,3.88.52,1.05,1.11,2.13,1.97,2.94,1.53,1.45,3.24,2.54,4.89,3.84.77.61,1.54,1.27,2.04,2.14.77,1.35.83,3.45-.02,4.89-.4.68-1.05,1.36-1.66,1.84-2.55.34-4.98.04-7.55.05l.25,7.87.38,12.95c.07,2.24.12,4.34.06,6.55-.05,1.97-.66,3.69-1.61,5.36-.36.63-.68,1.1-1.2,1.62-2.08,2.07-4.45,3.63-7.34,4.52-.69-1.22-1.02-2.59-.95-4.07l.67-16.15.36-6.69.46-6.15c.35-4.63-1.39-9.25-2.74-13.56-3.47-3.78-6.91-5.77-11.17-8.32-1.84-1.1-3.33-2.5-5.02-3.85-6.26-5.01-12.39-10.04-18.45-15.29-.91-.79-1.96-1.17-2.98-1.78-4.22.75-7,3.66-10.05,6.44-5.47,4.98-11.15,9.59-17.05,14.03-3.13,2.35-6.09,4.73-8.98,7.35l-4.67,4.24c-.15,1.63-.13,3.15-.13,4.85l.1,41.88,6.3,2.32c1.7.63,3.47.39,5.22.03,1.84-.47,3.49-1.2,5.24-1.91l5.98-2.41c-4.2-4.82-8.87-10.47-11.41-16.26-1.78-4.05-2.94-8.4-2.71-12.88Z"/>
    </g>
    <rect class="cls-4" x="185.29" y="37.9" width="173.4" height="13.22"/>
    <path class="cls-2" d="M199.77,90.41c-1.76,1.45-2.65,3.6-2.65,6.45,0,1.8.55,3.49,1.66,5.08s2.99,2.38,5.63,2.38,5.15-1.04,7.52-3.12,4.17-4.36,5.38-6.82l1.55,3.23c-3.92,7.72-9.38,11.58-16.37,11.58-3.47,0-6.4-1.08-8.8-3.25s-3.6-4.72-3.6-7.64c0-5.11,1.96-8.82,5.88-11.11-1.31-1.87-1.96-4.06-1.96-6.56,0-3.28,1.22-6.1,3.67-8.46s5.28-3.55,8.51-3.55,5.71.95,7.46,2.86c1.75,1.9,2.62,4.41,2.62,7.51h-4.33c.03-1.9-.4-3.34-1.3-4.31s-2.14-1.45-3.74-1.45-3.03.67-4.31,2.01c-1.43,1.45-2.14,3.14-2.14,5.08s.46,3.62,1.37,5.02c3.04-.42,5.35-.19,6.93.69.97.53,1.46,1.37,1.46,2.51s-.55,1.95-1.66,2.41-2.44.69-3.99.69-3.15-.4-4.79-1.22h0Z"/>
    <path class="cls-2" d="M234.93,81.21c1.46,0,2.8.19,4.01.56,1.22.37,2.2.87,2.94,1.51.74.63,1.12,1.32,1.12,2.06,0,.35-.11.7-.32,1.03-.21.34-.5.5-.87.5-.4,0-.71-.1-.93-.29-.23-.19-.45-.44-.66-.74s-.53-.56-.96-.77c-.4-.25-.97-.45-1.71-.61-.75-.16-1.57-.24-2.48-.24-1.7,0-3.24.49-4.61,1.48-1.37.99-2.45,2.31-3.24,3.97-.79,1.66-1.19,3.53-1.19,5.61s.38,4.02,1.14,5.71,1.81,3.02,3.15,3.99,2.9,1.46,4.7,1.46c1.18,0,2.12-.12,2.8-.37.68-.25,1.25-.53,1.71-.85.61-.39,1.04-.77,1.3-1.14s.6-.56,1.03-.56c.4,0,.69.13.89.4.2.26.3.61.3,1.03,0,.56-.36,1.19-1.07,1.88s-1.7,1.29-2.94,1.8c-1.25.51-2.69.77-4.33.77-2.25,0-4.23-.62-5.95-1.85-1.72-1.23-3.06-2.92-4.01-5.05-.96-2.13-1.44-4.54-1.44-7.22s.49-4.92,1.46-7.04,2.33-3.82,4.06-5.1,3.77-1.93,6.11-1.93h0Z"/>
    <path class="cls-2" d="M251.3,107.29c0,.42-.14.79-.41,1.11s-.59.48-.96.48c-.4,0-.72-.16-.98-.48-.26-.32-.39-.69-.39-1.11v-35.97c0-.42.14-.79.41-1.11s.59-.48.96-.48c.4,0,.72.16.98.48.26.32.39.69.39,1.11v35.97Z"/>
    <path class="cls-2" d="M277.89,81.84c.39,0,.72.16.98.48s.39.71.39,1.16v23.8c0,.42-.14.79-.41,1.11s-.59.48-.96.48c-.43,0-.76-.16-1-.48s-.36-.69-.36-1.11v-6.29l.78-.37c0,.95-.24,1.95-.71,2.99-.47,1.04-1.12,1.99-1.94,2.86s-1.79,1.57-2.9,2.12c-1.11.55-2.3.82-3.58.82-2.07,0-3.91-.62-5.54-1.85-1.63-1.23-2.9-2.93-3.83-5.08-.93-2.15-1.39-4.57-1.39-7.25s.47-5.18,1.41-7.27c.94-2.1,2.22-3.75,3.83-4.95s3.42-1.8,5.43-1.8c1.31,0,2.53.26,3.67.79s2.14,1.25,2.99,2.17,1.52,1.97,2.01,3.15c.49,1.18.73,2.41.73,3.68l-.96-.79v-6.72c0-.46.12-.85.36-1.16s.58-.48,1-.48h0ZM268.4,106.44c1.61,0,3.04-.48,4.29-1.46,1.25-.97,2.23-2.31,2.94-4.02s1.07-3.62,1.07-5.74-.36-3.91-1.07-5.58c-.72-1.67-1.7-3-2.94-3.97s-2.68-1.46-4.29-1.46-3,.47-4.26,1.4-2.25,2.23-2.96,3.89-1.07,3.56-1.07,5.71.36,4.03,1.07,5.74,1.7,3.05,2.94,4.02c1.25.97,2.68,1.46,4.29,1.46h0Z"/>
    <path class="cls-2" d="M297.54,104.59c-.24-.42-.36-.84-.34-1.24,0-.41.21-.73.57-.98.24-.25.53-.35.84-.32.32.04.62.21.89.53.82,1.23,1.82,2.23,2.99,2.99,1.17.76,2.56,1.14,4.17,1.14.85,0,1.69-.17,2.53-.5s1.53-.85,2.07-1.53c.55-.69.82-1.56.82-2.62s-.27-1.97-.82-2.62-1.25-1.18-2.12-1.59-1.8-.75-2.8-1.03c-1.03-.32-2.03-.68-2.99-1.08-.96-.41-1.82-.92-2.58-1.53-.76-.62-1.36-1.37-1.8-2.25s-.66-1.96-.66-3.23c0-1.48.34-2.79,1.03-3.91.68-1.13,1.63-2.01,2.85-2.65,1.22-.63,2.57-.95,4.06-.95.79,0,1.63.11,2.51.34.88.23,1.75.61,2.6,1.14s1.61,1.25,2.28,2.17c.27.32.41.68.41,1.08s-.15.78-.46,1.14c-.24.21-.52.31-.84.29-.32-.02-.59-.17-.8-.45-.73-.95-1.6-1.67-2.6-2.14-1-.48-2.08-.71-3.24-.71-.88,0-1.71.16-2.49.48-.77.32-1.42.81-1.94,1.48s-.77,1.55-.77,2.65c.06,1.02.37,1.85.93,2.49s1.31,1.16,2.24,1.59c.93.42,1.97.81,3.12,1.16.97.28,1.91.62,2.8,1.01.9.39,1.69.87,2.37,1.46.68.58,1.23,1.31,1.64,2.19s.62,1.99.62,3.33c0,1.55-.37,2.89-1.12,4.02s-1.74,1.99-2.99,2.59c-1.25.6-2.63.9-4.15.9-1.64,0-3.23-.37-4.77-1.11-1.54-.74-2.9-1.97-4.08-3.7l.02-.03h0Z"/>
    <path class="cls-2" d="M321.53,77.82c-.64,0-1.12-.17-1.44-.5s-.48-.82-.48-1.46v-.53c0-.63.17-1.12.52-1.46.35-.33.83-.5,1.44-.5s1.03.17,1.35.5c.32.34.48.82.48,1.46v.53c0,.63-.16,1.12-.48,1.46-.32.34-.78.5-1.39.5h0ZM322.9,107.29c0,.42-.14.79-.41,1.11s-.59.48-.96.48c-.43,0-.76-.16-1-.48-.24-.32-.36-.69-.36-1.11v-24.33c0-.42.13-.79.39-1.11s.59-.48.98-.48.72.16.98.48c.26.32.39.69.39,1.11v24.33h0Z"/>
    <path class="cls-2" d="M328.69,104.59c-.24-.42-.36-.84-.34-1.24,0-.41.21-.73.57-.98.24-.25.53-.35.84-.32.32.04.62.21.89.53.82,1.23,1.82,2.23,2.99,2.99,1.17.76,2.56,1.14,4.17,1.14.85,0,1.69-.17,2.53-.5s1.53-.85,2.07-1.53c.55-.69.82-1.56.82-2.62s-.27-1.97-.82-2.62c-.55-.65-1.25-1.18-2.12-1.59s-1.8-.75-2.8-1.03c-1.03-.32-2.03-.68-2.99-1.08-.96-.41-1.82-.92-2.58-1.53-.76-.62-1.36-1.37-1.8-2.25s-.66-1.96-.66-3.23c0-1.48.34-2.79,1.03-3.91.68-1.13,1.63-2.01,2.85-2.65,1.22-.63,2.57-.95,4.06-.95.79,0,1.63.11,2.51.34.88.23,1.75.61,2.6,1.14.85.53,1.61,1.25,2.28,2.17.27.32.41.68.41,1.08s-.15.78-.46,1.14c-.24.21-.52.31-.84.29s-.59-.17-.8-.45c-.73-.95-1.6-1.67-2.6-2.14-1-.48-2.08-.71-3.24-.71-.88,0-1.71.16-2.49.48-.77.32-1.42.81-1.94,1.48s-.77,1.55-.77,2.65c.06,1.02.37,1.85.93,2.49s1.31,1.16,2.24,1.59c.93.42,1.97.81,3.12,1.16.97.28,1.91.62,2.8,1.01.9.39,1.69.87,2.37,1.46.68.58,1.23,1.31,1.64,2.19s.62,1.99.62,3.33c0,1.55-.37,2.89-1.12,4.02s-1.74,1.99-2.99,2.59c-1.25.6-2.63.9-4.15.9-1.64,0-3.23-.37-4.77-1.11-1.54-.74-2.9-1.97-4.08-3.7l.02-.03h0Z"/>
    <path class="cls-2" d="M349.9,81.95h10.63c.37,0,.67.15.91.45s.37.66.37,1.08-.12.78-.37,1.06c-.24.28-.55.42-.91.42h-10.63c-.36,0-.68-.15-.94-.45s-.39-.66-.39-1.08.13-.77.39-1.06c.26-.28.57-.42.94-.42ZM354.6,74.49c.39,0,.72.16.98.48.26.32.39.69.39,1.11v26.55c0,.99.11,1.73.34,2.22.23.5.52.82.89.98.37.16.73.24,1.09.24.24,0,.46-.04.66-.13.2-.09.42-.13.66-.13.27,0,.51.12.71.37.2.25.3.57.3.95,0,.49-.24.91-.73,1.24-.49.34-1.06.5-1.73.5-.27,0-.68-.03-1.23-.08-.55-.05-1.11-.25-1.69-.58-.58-.33-1.07-.93-1.46-1.77-.4-.85-.59-2.06-.59-3.65v-26.71c0-.42.14-.79.41-1.11s.61-.48,1-.48Z"/>
    <path class="cls-2" d="M385.97,81.84c.39,0,.72.16.98.48s.39.71.39,1.16v23.8c0,.42-.14.79-.41,1.11s-.59.48-.96.48c-.43,0-.76-.16-1-.48s-.36-.69-.36-1.11v-6.29l.78-.37c0,.95-.24,1.95-.71,2.99-.47,1.04-1.12,1.99-1.94,2.86s-1.79,1.57-2.9,2.12c-1.11.55-2.3.82-3.58.82-2.07,0-3.91-.62-5.54-1.85-1.63-1.23-2.9-2.93-3.83-5.08-.93-2.15-1.39-4.57-1.39-7.25s.47-5.18,1.41-7.27c.94-2.1,2.22-3.75,3.83-4.95s3.42-1.8,5.43-1.8c1.31,0,2.53.26,3.67.79s2.14,1.25,2.99,2.17c.85.92,1.52,1.97,2.01,3.15.49,1.18.73,2.41.73,3.68l-.96-.79v-6.72c0-.46.12-.85.36-1.16s.58-.48,1-.48h0ZM376.49,106.44c1.61,0,3.04-.48,4.29-1.46,1.25-.97,2.23-2.31,2.94-4.02s1.07-3.62,1.07-5.74-.36-3.91-1.07-5.58c-.72-1.67-1.7-3-2.94-3.97s-2.68-1.46-4.29-1.46-3,.47-4.26,1.4-2.25,2.23-2.96,3.89-1.07,3.56-1.07,5.71.36,4.03,1.07,5.74c.71,1.71,1.7,3.05,2.94,4.02,1.25.97,2.68,1.46,4.29,1.46h-.01Z"/>
    <path class="cls-2" d="M405.49,81.21c2.01,0,3.61.47,4.81,1.4,1.2.94,2.07,2.2,2.6,3.81.53,1.6.8,3.38.8,5.32v15.55c0,.42-.14.79-.41,1.11s-.59.48-.96.48c-.43,0-.77-.16-1.03-.48-.26-.32-.39-.69-.39-1.11v-15.39c0-1.41-.2-2.7-.59-3.86-.4-1.16-1.03-2.09-1.92-2.78s-2.05-1.03-3.51-1.03c-1.31,0-2.55.34-3.72,1.03s-2.12,1.61-2.85,2.78c-.73,1.16-1.09,2.45-1.09,3.86v15.39c0,.42-.14.79-.41,1.11s-.59.48-.96.48c-.43,0-.77-.16-1.03-.48-.26-.32-.39-.69-.39-1.11v-23.7c0-.42.14-.79.41-1.11s.61-.48,1-.48.72.16.98.48.39.69.39,1.11v4.44l-1.05,1.9c.06-1.13.37-2.21.93-3.25s1.28-1.97,2.17-2.8c.88-.83,1.86-1.48,2.94-1.96s2.17-.71,3.26-.71h.02Z"/>
    <path class="cls-2" d="M431.12,81.21c1.46,0,2.8.19,4.01.56,1.22.37,2.2.87,2.94,1.51.74.63,1.12,1.32,1.12,2.06,0,.35-.11.7-.32,1.03-.21.34-.5.5-.87.5-.4,0-.71-.1-.93-.29-.23-.19-.45-.44-.66-.74s-.53-.56-.96-.77c-.4-.25-.97-.45-1.71-.61-.75-.16-1.57-.24-2.48-.24-1.7,0-3.24.49-4.61,1.48-1.37.99-2.45,2.31-3.24,3.97-.79,1.66-1.19,3.53-1.19,5.61s.38,4.02,1.14,5.71,1.81,3.02,3.15,3.99,2.9,1.46,4.7,1.46c1.18,0,2.12-.12,2.8-.37s1.25-.53,1.71-.85c.61-.39,1.04-.77,1.3-1.14s.6-.56,1.03-.56c.4,0,.69.13.89.4.2.26.3.61.3,1.03,0,.56-.36,1.19-1.07,1.88s-1.7,1.29-2.94,1.8c-1.25.51-2.69.77-4.33.77-2.25,0-4.23-.62-5.95-1.85-1.72-1.23-3.06-2.92-4.01-5.05-.96-2.13-1.44-4.54-1.44-7.22s.49-4.92,1.46-7.04,2.33-3.82,4.06-5.1,3.77-1.93,6.11-1.93h0Z"/>
    <path class="cls-2" d="M455.02,109.4c-2.34,0-4.41-.58-6.2-1.75-1.79-1.16-3.19-2.79-4.2-4.87-1-2.08-1.5-4.51-1.5-7.3,0-3,.51-5.55,1.53-7.67s2.34-3.75,3.97-4.89,3.35-1.72,5.18-1.72c1.34,0,2.64.27,3.9.82,1.26.55,2.39,1.36,3.37,2.43.99,1.08,1.78,2.39,2.37,3.94s.92,3.35.98,5.4c-.03.42-.18.78-.46,1.08-.27.3-.59.45-.96.45h-18.29l-.55-2.86h17.97l-.59.63v-1.06c-.15-1.66-.62-3.06-1.41-4.21-.79-1.15-1.74-2.03-2.85-2.65-1.11-.62-2.27-.93-3.49-.93-.91,0-1.85.21-2.8.63s-1.82,1.08-2.6,1.98-1.41,2.05-1.89,3.44c-.49,1.39-.73,3.04-.73,4.95,0,2.08.36,3.97,1.09,5.66s1.79,3.03,3.17,4.02,3.03,1.48,4.95,1.48c1.06,0,2.01-.18,2.85-.53s1.58-.82,2.23-1.4,1.19-1.19,1.62-1.83c.33-.32.65-.48.96-.48.33,0,.62.14.84.42.23.28.34.6.34.95,0,.42-.15.79-.46,1.11-.91,1.27-2.1,2.37-3.56,3.31s-3.06,1.4-4.79,1.4v.05h.01Z"/>
    <path class="cls-3" d="M304.97,142.91c.1,0,.19.05.26.19.07.12.11.25.11.42,0,.19-.04.32-.11.44-.07.1-.16.17-.26.17h-6.93c-.11,0-.21-.07-.27-.19-.07-.12-.1-.25-.1-.42v-19.74c0-.15.04-.31.11-.42s.17-.19.29-.19.21.07.29.19.11.25.11.42v19.67l-.34-.54h6.86-.01Z"/>
    <path class="cls-3" d="M315.01,129.18c.11,0,.21.07.27.19.07.12.1.25.1.42v13.72c0,.15-.04.31-.11.42s-.16.19-.26.19c-.11,0-.2-.07-.27-.19s-.1-.25-.1-.42v-4.24l.3-.39c0,.64-.1,1.29-.3,1.95s-.48,1.25-.83,1.8-.77.97-1.24,1.31c-.48.32-.99.49-1.55.49-.85,0-1.59-.36-2.26-1.05-.66-.7-1.18-1.64-1.55-2.83s-.57-2.54-.57-4.04.19-2.85.57-4.02c.39-1.17.91-2.09,1.57-2.75s1.4-1,2.24-1c.55,0,1.06.15,1.53.46.48.31.89.75,1.26,1.31s.63,1.2.85,1.95c.2.75.3,1.56.3,2.44l-.3-.75v-4.34c0-.15.04-.31.1-.42.07-.12.16-.19.27-.19h.01v-.02ZM311.03,143.27c.71,0,1.33-.29,1.89-.88s.99-1.39,1.3-2.42.47-2.19.47-3.48-.16-2.36-.47-3.36-.75-1.8-1.3-2.39-1.18-.88-1.89-.88-1.32.29-1.86.85c-.56.56-.99,1.36-1.32,2.34-.32,1-.48,2.14-.48,3.44s.16,2.46.47,3.48.75,1.83,1.3,2.42c.56.59,1.18.88,1.89.88h0Z"/>
    <path class="cls-3" d="M331.42,129.01c.11,0,.21.07.27.19.07.12.1.25.1.42v19.89c0,.15-.04.31-.11.42s-.16.19-.26.19c-.11,0-.2-.07-.27-.19s-.1-.25-.1-.42v-10.22l.3-.66c0,.68-.1,1.36-.3,2.05-.2.68-.47,1.32-.83,1.88s-.78,1.02-1.26,1.36c-.48.34-.99.51-1.55.51-.83,0-1.58-.34-2.24-1.03s-1.18-1.63-1.57-2.81c-.39-1.19-.57-2.53-.57-4.02s.19-2.83.57-4.02.91-2.12,1.57-2.8,1.4-1.02,2.24-1.02c.52,0,1.01.15,1.48.46.47.31.89.75,1.26,1.31s.66,1.2.87,1.95c.21.75.32,1.56.32,2.44l-.3-.75v-4.51c0-.15.04-.31.1-.42.07-.12.16-.19.27-.19h.01ZM327.45,143.27c.72,0,1.35-.29,1.9-.86s.98-1.37,1.29-2.39.47-2.17.47-3.46-.16-2.44-.47-3.46c-.31-1-.75-1.8-1.3-2.37s-1.18-.86-1.89-.86-1.32.29-1.86.86c-.56.58-.99,1.37-1.32,2.37s-.48,2.15-.48,3.46.16,2.42.48,3.44.76,1.81,1.32,2.41c.56.59,1.18.88,1.86.88h0v-.02Z"/>
    <path class="cls-3" d="M342.06,129.18c.11,0,.2.07.27.19s.1.25.1.42v8.7c0,1.93-.35,3.39-1.03,4.36s-1.59,1.44-2.73,1.44-2.03-.47-2.71-1.44-1.03-2.42-1.03-4.36v-8.7c0-.15.04-.31.11-.42s.16-.19.26-.19c.11,0,.2.07.27.19s.1.25.1.42v8.7c0,1.51.27,2.68.81,3.46.53.8,1.27,1.2,2.19,1.2s1.67-.41,2.2-1.2.81-1.95.81-3.46v-8.7c0-.15.04-.31.1-.42.07-.12.16-.19.27-.19h.01Z"/>
    <path class="cls-3" d="M353.37,129.18c.11,0,.21.07.27.19.07.12.1.25.1.42v13.72c0,.15-.04.31-.11.42s-.16.19-.26.19c-.11,0-.2-.07-.27-.19s-.1-.25-.1-.42v-4.24l.3-.39c0,.64-.1,1.29-.3,1.95s-.48,1.25-.83,1.8-.77.97-1.24,1.31c-.48.32-.99.49-1.55.49-.85,0-1.59-.36-2.26-1.05-.66-.7-1.18-1.64-1.55-2.83s-.57-2.54-.57-4.04.19-2.85.57-4.02.91-2.09,1.57-2.75,1.4-1,2.24-1c.55,0,1.06.15,1.53.46.48.31.89.75,1.26,1.31s.63,1.2.85,1.95c.2.75.3,1.56.3,2.44l-.3-.75v-4.34c0-.15.04-.31.1-.42.07-.12.16-.19.27-.19h.01v-.02ZM349.41,143.27c.71,0,1.33-.29,1.89-.88s.99-1.39,1.3-2.42.47-2.19.47-3.48-.16-2.36-.47-3.36-.75-1.8-1.3-2.39-1.18-.88-1.89-.88-1.32.29-1.86.85c-.56.56-.99,1.36-1.32,2.34-.32,1-.48,2.14-.48,3.44s.16,2.46.47,3.48.75,1.83,1.3,2.42c.56.59,1.18.88,1.89.88h0Z"/>
    <path class="cls-3" d="M357.73,143.51c0,.15-.04.31-.11.42s-.16.19-.26.19c-.11,0-.2-.07-.27-.19s-.1-.25-.1-.42v-20.92c0-.15.04-.31.11-.42s.16-.19.26-.19c.11,0,.21.07.27.19.07.12.1.25.1.42v20.92Z"/>
    <path class="cls-3" d="M361.35,126.67c-.2,0-.36-.08-.48-.27s-.17-.41-.17-.7v-.24c0-.27.06-.51.19-.7s.29-.27.5-.27c.17,0,.32.08.45.27s.17.41.17.7v.24c0,.27-.06.51-.17.7-.12.19-.27.27-.46.27h-.01ZM361.72,143.51c0,.15-.04.31-.11.42s-.16.19-.26.19c-.11,0-.21-.07-.27-.19-.07-.12-.1-.25-.1-.42v-14.21c0-.15.04-.31.11-.42s.16-.19.26-.19c.11,0,.2.07.27.19s.1.25.1.42v14.21Z"/>
    <path class="cls-3" d="M364,129.06h4.39c.1,0,.19.07.26.19s.1.25.1.39c0,.15-.04.29-.1.41s-.15.17-.26.17h-4.39c-.09,0-.17-.05-.25-.19s-.11-.25-.11-.39c0-.15.04-.29.11-.41.07-.1.16-.17.25-.17ZM365.92,124.67c.11,0,.21.07.27.19.07.12.1.25.1.42v15.58c0,.66.05,1.14.16,1.46s.24.51.41.59c.16.08.32.14.47.14.09,0,.16,0,.22-.07.06-.03.14-.05.22-.05s.16.05.22.17.1.24.1.37c0,.19-.07.34-.21.46-.15.14-.32.19-.53.19h-.41c-.2,0-.4-.1-.62-.27s-.41-.47-.56-.93c-.15-.44-.22-1.1-.22-1.98v-15.63c0-.15.04-.31.11-.42s.16-.19.26-.19h0v-.02Z"/>
    <path class="cls-3" d="M374.98,144.4c-.94,0-1.78-.32-2.5-.95-.72-.64-1.29-1.54-1.71-2.71-.41-1.17-.62-2.54-.62-4.1,0-1.68.2-3.1.61-4.27s.94-2.09,1.59-2.71c.65-.63,1.34-.95,2.06-.95.53,0,1.04.14,1.55.41s.96.7,1.35,1.25.72,1.27.96,2.12.39,1.87.41,3.04c0,.15-.04.31-.11.44s-.16.2-.26.2h-7.7l-.11-1.14h7.62l-.19.27v-.54c-.06-1.05-.27-1.95-.63-2.66-.36-.71-.8-1.25-1.29-1.63-.51-.37-1.03-.56-1.57-.56-.37,0-.77.14-1.19.41-.41.27-.8.68-1.16,1.22-.35.54-.63,1.24-.86,2.07s-.34,1.81-.34,2.93c0,1.22.15,2.34.46,3.34.31,1.02.77,1.83,1.38,2.46.61.61,1.37.93,2.26.93.42,0,.83-.12,1.21-.34s.72-.53,1.02-.92c.3-.37.55-.78.73-1.22.1-.19.21-.27.32-.27.09,0,.16.05.22.17.06.1.1.24.1.37s-.02.25-.07.36c-.39.8-.89,1.49-1.5,2.09-.61.59-1.29.9-2.03.9h-.01ZM374.21,127.77s-.11-.03-.15-.12-.06-.15-.06-.24c0-.1.04-.24.1-.39l1.17-2.78c.04-.1.1-.2.17-.32s.19-.17.31-.17c.14,0,.26.07.35.19.1.12.14.31.14.56,0,.12-.01.22-.04.29s-.06.15-.1.22l-1.42,2.31c-.06.1-.14.2-.22.31s-.17.15-.27.15h.02Z"/>
    <path class="cls-3" d="M394.14,129.18c.11,0,.21.07.27.19.07.12.1.25.1.42v13.72c0,.15-.04.31-.11.42s-.16.19-.26.19c-.11,0-.2-.07-.27-.19s-.1-.25-.1-.42v-4.24l.3-.39c0,.64-.1,1.29-.3,1.95s-.48,1.25-.83,1.8-.77.97-1.24,1.31c-.48.32-.99.49-1.55.49-.85,0-1.59-.36-2.26-1.05-.66-.7-1.18-1.64-1.55-2.83s-.57-2.54-.57-4.04.19-2.85.57-4.02.91-2.09,1.57-2.75,1.4-1,2.24-1c.55,0,1.06.15,1.53.46.48.31.89.75,1.26,1.31s.63,1.2.85,1.95c.2.75.3,1.56.3,2.44l-.3-.75v-4.34c0-.15.04-.31.1-.42.07-.12.16-.19.27-.19h.01v-.02ZM390.18,143.27c.71,0,1.33-.29,1.89-.88s.99-1.39,1.3-2.42.47-2.19.47-3.48-.16-2.36-.47-3.36-.75-1.8-1.3-2.39-1.18-.88-1.89-.88-1.32.29-1.86.85c-.56.56-.99,1.36-1.32,2.34-.32,1-.48,2.14-.48,3.44s.16,2.46.47,3.48.75,1.83,1.3,2.42c.56.59,1.18.88,1.89.88h0ZM390.3,127.53c-.09,0-.17-.05-.26-.15-.09-.1-.16-.2-.22-.31l-1.34-2.36s-.07-.15-.1-.22c-.02-.07-.04-.17-.04-.29,0-.22.04-.39.11-.51s.17-.19.3-.19c.14,0,.25.05.32.17.07.1.14.22.17.32l1.17,2.78c.06.15.1.29.1.39,0,.08-.02.15-.06.24s-.09.12-.15.12h0Z"/>
    <path class="cls-3" d="M410.56,121.97c.11,0,.21.07.27.19.07.12.1.25.1.42v20.92c0,.15-.04.31-.11.42s-.16.19-.26.19c-.11,0-.2-.07-.27-.19s-.1-.25-.1-.42v-4.24l.3-.66c0,.68-.1,1.36-.3,2.05-.2.68-.47,1.32-.83,1.88s-.78,1.02-1.26,1.36c-.48.34-.99.51-1.55.51-.83,0-1.58-.34-2.24-1.03s-1.18-1.63-1.57-2.81-.57-2.53-.57-4.02.19-2.83.57-4.02.91-2.12,1.57-2.8,1.4-1.02,2.24-1.02c.52,0,1.01.15,1.48.46.47.31.89.75,1.26,1.31s.66,1.2.87,1.95c.21.75.32,1.56.32,2.44l-.3-.75v-11.55c0-.15.04-.31.1-.42.07-.12.16-.19.27-.19h0v.02ZM406.59,143.27c.72,0,1.35-.29,1.9-.86s.98-1.37,1.29-2.39.47-2.17.47-3.46-.16-2.44-.47-3.46c-.31-1-.75-1.8-1.3-2.37s-1.18-.86-1.89-.86-1.32.29-1.86.86c-.56.58-.99,1.37-1.32,2.37s-.48,2.15-.48,3.46.16,2.42.48,3.44.76,1.81,1.32,2.41c.56.59,1.18.88,1.86.88h0v-.02Z"/>
    <path class="cls-3" d="M422.8,136.57c0,1.48-.2,2.81-.61,3.98-.4,1.19-.96,2.12-1.65,2.81-.7.68-1.49,1.03-2.39,1.03s-1.68-.34-2.39-1.03-1.27-1.63-1.68-2.81c-.41-1.19-.61-2.51-.61-3.98s.2-2.83.61-4.02.97-2.12,1.68-2.81c.71-.68,1.5-1.03,2.39-1.03s1.69.34,2.39,1.03c.7.7,1.26,1.63,1.65,2.81.4,1.19.61,2.53.61,4.02ZM422.04,136.57c0-1.29-.16-2.44-.5-3.46-.34-1-.8-1.8-1.38-2.39s-1.26-.88-2.01-.88-1.42.29-2,.88-1.06,1.39-1.39,2.39-.51,2.15-.51,3.46.17,2.42.51,3.43c.34,1,.81,1.8,1.39,2.39s1.26.88,2,.88,1.43-.29,2.01-.88,1.04-1.39,1.38-2.39.5-2.15.5-3.43Z"/>
    <path class="cls-3" d="M429.37,129.01c.71,0,1.35.31,1.94.92s.98,1.56,1.19,2.85l-.25.27.1-.56c.16-.66.45-1.25.86-1.76s.87-.93,1.38-1.24c.51-.31,1.01-.46,1.48-.46.76,0,1.38.25,1.86.78s.86,1.2,1.08,2.09.35,1.85.35,2.95v8.7c0,.15-.04.31-.1.42-.07.12-.16.19-.27.19s-.21-.07-.27-.19c-.07-.12-.1-.25-.1-.42v-8.58c0-.88-.09-1.68-.27-2.41s-.46-1.31-.85-1.73-.88-.64-1.5-.64c-.55,0-1.07.22-1.59.64s-.94,1-1.28,1.73c-.34.73-.5,1.53-.5,2.41v8.58c0,.15-.04.31-.1.42-.07.12-.16.19-.27.19s-.2-.07-.27-.19-.1-.25-.1-.42v-8.73c0-.85-.09-1.63-.26-2.34-.17-.7-.43-1.25-.81-1.68-.36-.42-.85-.63-1.45-.63-.53,0-1.04.2-1.54.63s-.91.98-1.24,1.68c-.32.7-.5,1.48-.5,2.34v8.73c0,.15-.04.31-.11.42s-.16.19-.26.19c-.11,0-.21-.07-.27-.19-.07-.12-.1-.25-.1-.42v-13.72c0-.15.04-.31.11-.42s.16-.19.26-.19c.11,0,.2.07.27.19s.1.25.1.42v3.26l-.57,1.53c0-.7.11-1.37.32-2.03s.5-1.25.86-1.78.77-.95,1.23-1.27.93-.47,1.43-.47l.02-.03h0Z"/>
    <path class="cls-3" d="M442.89,126.67c-.2,0-.36-.08-.48-.27s-.17-.41-.17-.7v-.24c0-.27.06-.51.19-.7s.29-.27.5-.27c.17,0,.32.08.45.27s.17.41.17.7v.24c0,.27-.06.51-.17.7-.12.19-.27.27-.46.27h-.01ZM443.28,143.51c0,.15-.04.31-.11.42s-.16.19-.26.19c-.11,0-.21-.07-.27-.19-.07-.12-.1-.25-.1-.42v-14.21c0-.15.04-.31.11-.42s.16-.19.26-.19c.11,0,.2.07.27.19s.1.25.1.42v14.21Z"/>
    <path class="cls-3" d="M450.59,128.7c.57,0,1.09.1,1.59.31s.89.46,1.21.8c.31.32.46.68.46,1.03,0,.14-.04.27-.1.41s-.15.19-.26.19c-.14,0-.25-.07-.34-.19-.09-.12-.16-.27-.26-.44-.09-.17-.22-.32-.41-.46-.17-.14-.42-.25-.75-.36-.32-.1-.72-.15-1.18-.15-.73,0-1.39.31-2,.9s-1.08,1.41-1.44,2.41-.53,2.14-.53,3.39.16,2.42.5,3.44.8,1.81,1.39,2.41,1.29.88,2.09.88c.57,0,.99-.08,1.29-.25.3-.17.55-.36.77-.56.26-.24.45-.47.55-.7.1-.22.22-.32.36-.32.1,0,.17.05.24.15s.09.22.09.39c0,.24-.14.56-.41.95s-.67.73-1.17,1.03c-.5.31-1.08.44-1.76.44-.92,0-1.73-.34-2.44-1.03-.71-.7-1.26-1.63-1.65-2.81-.4-1.19-.6-2.53-.6-4.02,0-1.39.2-2.68.6-3.87s.96-2.14,1.67-2.87c.71-.73,1.54-1.09,2.5-1.09h0v-.02Z"/>
    <path class="cls-3" d="M456.56,126.67c-.2,0-.36-.08-.48-.27s-.17-.41-.17-.7v-.24c0-.27.06-.51.19-.7s.29-.27.5-.27c.17,0,.32.08.45.27s.17.41.17.7v.24c0,.27-.06.51-.17.7-.12.19-.27.27-.46.27h-.01ZM456.94,143.51c0,.15-.04.31-.11.42s-.16.19-.26.19c-.11,0-.21-.07-.27-.19-.07-.12-.1-.25-.1-.42v-14.21c0-.15.04-.31.11-.42s.16-.19.26-.19c.11,0,.2.07.27.19s.1.25.1.42v14.21Z"/>
  </g>
  <path class="cls-3" d="M460.92,143.51c0,.15-.04.31-.11.42s-.16.19-.26.19c-.11,0-.2-.07-.27-.19s-.1-.25-.1-.42v-20.92c0-.15.04-.31.11-.42s.16-.19.26-.19c.11,0,.21.07.27.19.07.12.1.25.1.42v20.92Z"/>
  <path class="cls-3" d="M468.21,144.4c-.94,0-1.78-.32-2.5-.95-.72-.64-1.29-1.54-1.71-2.71-.41-1.17-.62-2.54-.62-4.1,0-1.68.2-3.1.61-4.27s.94-2.09,1.59-2.71c.65-.63,1.34-.95,2.06-.95.53,0,1.04.14,1.55.41s.96.7,1.35,1.25.72,1.27.96,2.12.39,1.87.41,3.04c0,.15-.04.31-.11.44s-.16.2-.26.2h-7.7l-.11-1.14h7.62l-.19.27v-.54c-.06-1.05-.27-1.95-.63-2.66-.36-.71-.8-1.25-1.29-1.63-.51-.37-1.03-.56-1.57-.56-.37,0-.77.14-1.19.41-.41.27-.8.68-1.16,1.22-.35.54-.63,1.24-.86,2.07s-.34,1.81-.34,2.93c0,1.22.15,2.34.46,3.34.31,1.02.77,1.83,1.38,2.46.61.61,1.37.93,2.26.93.42,0,.83-.12,1.21-.34s.72-.53,1.02-.92c.3-.37.55-.78.73-1.22.1-.19.21-.27.32-.27.09,0,.16.05.22.17.06.1.1.24.1.37s-.02.25-.07.36c-.39.8-.89,1.49-1.5,2.09-.61.59-1.29.9-2.03.9h-.01Z"/>
</svg>