<?xml version="1.0" encoding="UTF-8"?>
<svg id="Calque_1" data-name="Calque 1" xmlns="http://www.w3.org/2000/svg" viewBox="0 0 274.33 40.81">
  <defs>
    <style>
      .cls-1 {
        fill: #51539f;
      }
    </style>
  </defs>
  <path class="cls-1" d="M9.68,21.79c-1.76,1.45-2.65,3.6-2.65,6.45,0,1.8.55,3.49,1.66,5.08s2.99,2.38,5.63,2.38,5.15-1.04,7.52-3.12,4.17-4.36,5.38-6.82l1.55,3.23c-3.92,7.72-9.38,11.58-16.37,11.58-3.47,0-6.4-1.08-8.8-3.25s-3.6-4.72-3.6-7.64c0-5.11,1.96-8.82,5.88-11.11-1.31-1.87-1.96-4.06-1.96-6.56,0-3.28,1.22-6.1,3.67-8.46S12.87,0,16.1,0s5.71.95,7.46,2.86c1.75,1.9,2.62,4.41,2.62,7.51h-4.33c.03-1.9-.4-3.34-1.3-4.31s-2.14-1.45-3.74-1.45-3.03.67-4.31,2.01c-1.43,1.45-2.14,3.14-2.14,5.08s.46,3.62,1.37,5.02c3.04-.42,5.35-.19,6.93.69.97.53,1.46,1.37,1.46,2.51s-.55,1.95-1.66,2.41-2.44.69-3.99.69-3.15-.4-4.79-1.22h0Z"/>
  <path class="cls-1" d="M44.84,12.59c1.46,0,2.8.19,4.01.56,1.22.37,2.2.87,2.94,1.51.74.63,1.12,1.32,1.12,2.06,0,.35-.11.7-.32,1.03-.21.34-.5.5-.87.5-.4,0-.71-.1-.93-.29-.23-.19-.45-.44-.66-.74s-.53-.56-.96-.77c-.4-.25-.97-.45-1.71-.61-.75-.16-1.57-.24-2.48-.24-1.7,0-3.24.49-4.61,1.48-1.37.99-2.45,2.31-3.24,3.97-.79,1.66-1.19,3.53-1.19,5.61s.38,4.02,1.14,5.71,1.81,3.02,3.15,3.99,2.9,1.46,4.7,1.46c1.18,0,2.12-.12,2.8-.37.68-.25,1.25-.53,1.71-.85.61-.39,1.04-.77,1.3-1.14s.6-.56,1.03-.56c.4,0,.69.13.89.4.2.26.3.61.3,1.03,0,.56-.36,1.19-1.07,1.88s-1.7,1.29-2.94,1.8c-1.25.51-2.69.77-4.33.77-2.25,0-4.23-.62-5.95-1.85-1.72-1.23-3.06-2.92-4.01-5.05-.96-2.13-1.44-4.54-1.44-7.22s.49-4.92,1.46-7.04,2.33-3.82,4.06-5.1,3.77-1.93,6.11-1.93h0Z"/>
  <path class="cls-1" d="M61.21,38.67c0,.42-.14.79-.41,1.11s-.59.48-.96.48c-.4,0-.72-.16-.98-.48s-.39-.69-.39-1.11V2.7c0-.42.14-.79.41-1.11s.59-.48.96-.48c.4,0,.72.16.98.48s.39.69.39,1.11v35.97Z"/>
  <path class="cls-1" d="M87.8,13.22c.39,0,.72.16.98.48s.39.71.39,1.16v23.8c0,.42-.14.79-.41,1.11s-.59.48-.96.48c-.43,0-.76-.16-1-.48s-.36-.69-.36-1.11v-6.29l.78-.37c0,.95-.24,1.95-.71,2.99s-1.12,1.99-1.94,2.86-1.79,1.57-2.9,2.12-2.3.82-3.58.82c-2.07,0-3.91-.62-5.54-1.85-1.63-1.23-2.9-2.93-3.83-5.08s-1.39-4.57-1.39-7.25.47-5.18,1.41-7.27c.94-2.1,2.22-3.75,3.83-4.95s3.42-1.8,5.43-1.8c1.31,0,2.53.26,3.67.79s2.14,1.25,2.99,2.17,1.52,1.97,2.01,3.15c.49,1.18.73,2.41.73,3.68l-.96-.79v-6.72c0-.46.12-.85.36-1.16s.58-.48,1-.48h0ZM78.31,37.82c1.61,0,3.04-.48,4.29-1.46,1.25-.97,2.23-2.31,2.94-4.02s1.07-3.62,1.07-5.74-.36-3.91-1.07-5.58c-.72-1.67-1.7-3-2.94-3.97s-2.68-1.46-4.29-1.46-3,.47-4.26,1.4-2.25,2.23-2.96,3.89-1.07,3.56-1.07,5.71.36,4.03,1.07,5.74,1.7,3.05,2.94,4.02c1.25.97,2.68,1.46,4.29,1.46h-.01Z"/>
  <path class="cls-1" d="M107.45,35.97c-.24-.42-.36-.84-.34-1.24,0-.41.21-.73.57-.98.24-.25.53-.35.84-.32.32.04.62.21.89.53.82,1.23,1.82,2.23,2.99,2.99,1.17.76,2.56,1.14,4.17,1.14.85,0,1.69-.17,2.53-.5s1.53-.85,2.07-1.53c.55-.69.82-1.56.82-2.62s-.27-1.97-.82-2.62-1.25-1.18-2.12-1.59-1.8-.75-2.8-1.03c-1.03-.32-2.03-.68-2.99-1.08-.96-.41-1.82-.92-2.58-1.53-.76-.62-1.36-1.37-1.8-2.25s-.66-1.96-.66-3.23c0-1.48.34-2.79,1.03-3.91.68-1.13,1.63-2.01,2.85-2.65,1.22-.63,2.57-.95,4.06-.95.79,0,1.63.11,2.51.34.88.23,1.75.61,2.6,1.14s1.61,1.25,2.28,2.17c.27.32.41.68.41,1.08s-.15.78-.46,1.14c-.24.21-.52.31-.84.29s-.59-.17-.8-.45c-.73-.95-1.6-1.67-2.6-2.14-1-.48-2.08-.71-3.24-.71-.88,0-1.71.16-2.49.48-.77.32-1.42.81-1.94,1.48s-.77,1.55-.77,2.65c.06,1.02.37,1.85.93,2.49s1.31,1.16,2.24,1.59c.93.42,1.97.81,3.12,1.16.97.28,1.91.62,2.8,1.01.9.39,1.69.87,2.37,1.46.68.58,1.23,1.31,1.64,2.19s.62,1.99.62,3.33c0,1.55-.37,2.89-1.12,4.02s-1.74,1.99-2.99,2.59-2.63.9-4.15.9c-1.64,0-3.23-.37-4.77-1.11-1.54-.74-2.9-1.97-4.08-3.7l.02-.03h0Z"/>
  <path class="cls-1" d="M131.44,9.2c-.64,0-1.12-.17-1.44-.5s-.48-.82-.48-1.46v-.53c0-.63.17-1.12.52-1.46.35-.33.83-.5,1.44-.5s1.03.17,1.35.5c.32.34.48.82.48,1.46v.53c0,.63-.16,1.12-.48,1.46s-.78.5-1.39.5h0ZM132.81,38.67c0,.42-.14.79-.41,1.11s-.59.48-.96.48c-.43,0-.76-.16-1-.48s-.36-.69-.36-1.11V14.34c0-.42.13-.79.39-1.11s.59-.48.98-.48.72.16.98.48.39.69.39,1.11v24.33h-.01Z"/>
  <path class="cls-1" d="M138.6,35.97c-.24-.42-.36-.84-.34-1.24,0-.41.21-.73.57-.98.24-.25.53-.35.84-.32.32.04.62.21.89.53.82,1.23,1.82,2.23,2.99,2.99,1.17.76,2.56,1.14,4.17,1.14.85,0,1.69-.17,2.53-.5s1.53-.85,2.07-1.53c.55-.69.82-1.56.82-2.62s-.27-1.97-.82-2.62c-.55-.65-1.25-1.18-2.12-1.59s-1.8-.75-2.8-1.03c-1.03-.32-2.03-.68-2.99-1.08-.96-.41-1.82-.92-2.58-1.53-.76-.62-1.36-1.37-1.8-2.25s-.66-1.96-.66-3.23c0-1.48.34-2.79,1.03-3.91.68-1.13,1.63-2.01,2.85-2.65,1.22-.63,2.57-.95,4.06-.95.79,0,1.63.11,2.51.34.88.23,1.75.61,2.6,1.14s1.61,1.25,2.28,2.17c.27.32.41.68.41,1.08s-.15.78-.46,1.14c-.24.21-.52.31-.84.29s-.59-.17-.8-.45c-.73-.95-1.6-1.67-2.6-2.14-1-.48-2.08-.71-3.24-.71-.88,0-1.71.16-2.49.48-.77.32-1.42.81-1.94,1.48s-.77,1.55-.77,2.65c.06,1.02.37,1.85.93,2.49s1.31,1.16,2.24,1.59c.93.42,1.97.81,3.12,1.16.97.28,1.91.62,2.8,1.01.9.39,1.69.87,2.37,1.46.68.58,1.23,1.31,1.64,2.19s.62,1.99.62,3.33c0,1.55-.37,2.89-1.12,4.02s-1.74,1.99-2.99,2.59-2.63.9-4.15.9c-1.64,0-3.23-.37-4.77-1.11-1.54-.74-2.9-1.97-4.08-3.7l.02-.03h0Z"/>
  <path class="cls-1" d="M159.81,13.33h10.63c.37,0,.67.15.91.45s.37.66.37,1.08-.12.78-.37,1.06c-.24.28-.55.42-.91.42h-10.63c-.36,0-.68-.15-.94-.45s-.39-.66-.39-1.08.13-.77.39-1.06c.26-.28.57-.42.94-.42ZM164.51,5.87c.39,0,.72.16.98.48s.39.69.39,1.11v26.55c0,.99.11,1.73.34,2.22.23.5.52.82.89.98.37.16.73.24,1.09.24.24,0,.46-.04.66-.13s.42-.13.66-.13c.27,0,.51.12.71.37.2.25.3.57.3.95,0,.49-.24.91-.73,1.24-.49.34-1.06.5-1.73.5-.27,0-.68-.03-1.23-.08-.55-.05-1.11-.25-1.69-.58-.58-.33-1.07-.93-1.46-1.77-.4-.85-.59-2.06-.59-3.65V7.46c0-.42.14-.79.41-1.11s.61-.48,1-.48Z"/>
  <path class="cls-1" d="M195.88,13.22c.39,0,.72.16.98.48s.39.71.39,1.16v23.8c0,.42-.14.79-.41,1.11s-.59.48-.96.48c-.43,0-.76-.16-1-.48s-.36-.69-.36-1.11v-6.29l.78-.37c0,.95-.24,1.95-.71,2.99s-1.12,1.99-1.94,2.86-1.79,1.57-2.9,2.12-2.3.82-3.58.82c-2.07,0-3.91-.62-5.54-1.85-1.63-1.23-2.9-2.93-3.83-5.08s-1.39-4.57-1.39-7.25.47-5.18,1.41-7.27c.94-2.1,2.22-3.75,3.83-4.95s3.42-1.8,5.43-1.8c1.31,0,2.53.26,3.67.79s2.14,1.25,2.99,2.17c.85.92,1.52,1.97,2.01,3.15.49,1.18.73,2.41.73,3.68l-.96-.79v-6.72c0-.46.12-.85.36-1.16s.58-.48,1-.48h0ZM186.4,37.82c1.61,0,3.04-.48,4.29-1.46,1.25-.97,2.23-2.31,2.94-4.02s1.07-3.62,1.07-5.74-.36-3.91-1.07-5.58c-.72-1.67-1.7-3-2.94-3.97s-2.68-1.46-4.29-1.46-3,.47-4.26,1.4-2.25,2.23-2.96,3.89-1.07,3.56-1.07,5.71.36,4.03,1.07,5.74c.71,1.71,1.7,3.05,2.94,4.02,1.25.97,2.68,1.46,4.29,1.46h-.01Z"/>
  <path class="cls-1" d="M215.4,12.59c2.01,0,3.61.47,4.81,1.4,1.2.94,2.07,2.2,2.6,3.81.53,1.6.8,3.38.8,5.32v15.55c0,.42-.14.79-.41,1.11s-.59.48-.96.48c-.43,0-.77-.16-1.03-.48s-.39-.69-.39-1.11v-15.39c0-1.41-.2-2.7-.59-3.86-.4-1.16-1.03-2.09-1.92-2.78s-2.05-1.03-3.51-1.03c-1.31,0-2.55.34-3.72,1.03s-2.12,1.61-2.85,2.78c-.73,1.16-1.09,2.45-1.09,3.86v15.39c0,.42-.14.79-.41,1.11s-.59.48-.96.48c-.43,0-.77-.16-1.03-.48s-.39-.69-.39-1.11V14.97c0-.42.14-.79.41-1.11s.61-.48,1-.48.72.16.98.48.39.69.39,1.11v4.44l-1.05,1.9c.06-1.13.37-2.21.93-3.25s1.28-1.97,2.17-2.8c.88-.83,1.86-1.48,2.94-1.96s2.17-.71,3.26-.71h.02Z"/>
  <path class="cls-1" d="M241.03,12.59c1.46,0,2.8.19,4.01.56,1.22.37,2.2.87,2.94,1.51.74.63,1.12,1.32,1.12,2.06,0,.35-.11.7-.32,1.03-.21.34-.5.5-.87.5-.4,0-.71-.1-.93-.29-.23-.19-.45-.44-.66-.74s-.53-.56-.96-.77c-.4-.25-.97-.45-1.71-.61-.75-.16-1.57-.24-2.48-.24-1.7,0-3.24.49-4.61,1.48-1.37.99-2.45,2.31-3.24,3.97-.79,1.66-1.19,3.53-1.19,5.61s.38,4.02,1.14,5.71,1.81,3.02,3.15,3.99,2.9,1.46,4.7,1.46c1.18,0,2.12-.12,2.8-.37s1.25-.53,1.71-.85c.61-.39,1.04-.77,1.3-1.14s.6-.56,1.03-.56c.4,0,.69.13.89.4.2.26.3.61.3,1.03,0,.56-.36,1.19-1.07,1.88s-1.7,1.29-2.94,1.8c-1.25.51-2.69.77-4.33.77-2.25,0-4.23-.62-5.95-1.85-1.72-1.23-3.06-2.92-4.01-5.05-.96-2.13-1.44-4.54-1.44-7.22s.49-4.92,1.46-7.04,2.33-3.82,4.06-5.1,3.77-1.93,6.11-1.93h0Z"/>
  <path class="cls-1" d="M264.93,40.78c-2.34,0-4.41-.58-6.2-1.75-1.79-1.16-3.19-2.79-4.2-4.87-1-2.08-1.5-4.51-1.5-7.3,0-3,.51-5.55,1.53-7.67s2.34-3.75,3.97-4.89,3.35-1.72,5.18-1.72c1.34,0,2.64.27,3.9.82,1.26.55,2.39,1.36,3.37,2.43.99,1.08,1.78,2.39,2.37,3.94s.92,3.35.98,5.4c-.03.42-.18.78-.46,1.08-.27.3-.59.45-.96.45h-18.29l-.55-2.86h17.97l-.59.63v-1.06c-.15-1.66-.62-3.06-1.41-4.21s-1.74-2.03-2.85-2.65c-1.11-.62-2.27-.93-3.49-.93-.91,0-1.85.21-2.8.63s-1.82,1.08-2.6,1.98-1.41,2.05-1.89,3.44c-.49,1.39-.73,3.04-.73,4.95,0,2.08.36,3.97,1.09,5.66s1.79,3.03,3.17,4.02,3.03,1.48,4.95,1.48c1.06,0,2.01-.18,2.85-.53s1.58-.82,2.23-1.4,1.19-1.19,1.62-1.83c.33-.32.65-.48.96-.48.33,0,.62.14.84.42.23.28.34.6.34.95,0,.42-.15.79-.46,1.11-.91,1.27-2.1,2.37-3.56,3.31s-3.06,1.4-4.79,1.4v.05h.01Z"/>
</svg>